<svg id="EGL logo" xmlns="http://www.w3.org/2000/svg" width="1280" height="660" viewBox="0 0 1280 660">
<defs>
</defs>
<path class="cls-1" d="M783,218L652,147L656,64Z" fill="hsla(0,70%,60%)"></path>
<path class="cls-2" d="M316,208L644,318L572,216Z" fill="hsla(25.714285714285715,70%,60%)"></path>
<path class="cls-3" d="M572,216L644,318L692,312Z" fill="hsla(51.42857142857143,70%,60%)"></path>
<path class="cls-4" d="M421,141L396,46L834,269Z" fill="hsla(77.14285714285714,70%,60%)"></path>
<path class="cls-5" d="M690,312L573,216L757,309Z" fill="hsla(102.85714285714286,70%,60%)"></path>
<path class="cls-6" d="M421,141L757,308L834,269Z" fill="hsla(128.57142857142858,70%,60%)"></path>
<path class="cls-7" d="M690,312L662,343L743,329Z" fill="hsla(154.28571428571428,70%,60%)"></path>
<path class="cls-8" d="M735,371L743,329L662,343Z" fill="hsla(180,70%,60%)"></path>
<path class="cls-9" d="M758,308L743,329L692,312Z" fill="hsla(205.71428571428572,70%,60%)"></path>
<path class="cls-10" d="M748,393L743,329L735,371Z" fill="hsla(231.42857142857144,70%,60%)"></path>
<path class="cls-11" d="M762,383L777,371L785,378Z" fill="hsla(257.14285714285717,70%,60%)"></path>
<path class="cls-12" d="M748,393L752,365L743,329Z" fill="hsla(282.8571428571429,70%,60%)"></path>
<path class="cls-12" d="M758,308L836,280L834,269Z" fill="hsla(308.57142857142856,70%,60%)"></path>
<path class="cls-3" d="M845,309L836,280L757,309Z" fill="hsla(334.2857142857143,70%,60%)"></path>
<path class="cls-13" d="M848,317L854,300L836,280Z" fill="hsla(360,70%,60%)"></path>
<path class="cls-14" d="M748,393L777,371L752,365Z" fill="hsla(385.7142857142857,70%,60%)"></path>
</svg>